<?xml version="1.0" standalone="no"?><svg xmlns="http://www.w3.org/2000/svg" viewBox="0 0 1440 320"><path fill="#00a8e6" fill-opacity="1" d="M0,128L26.7,138.7C53.3,149,107,171,160,192C213.3,213,267,235,320,224C373.3,213,427,171,480,144C533.3,117,587,107,640,117.3C693.3,128,747,160,800,181.3C853.3,203,907,213,960,186.7C1013.3,160,1067,96,1120,85.3C1173.3,75,1227,117,1280,133.3C1333.3,149,1387,139,1413,133.3L1440,128L1440,320L1413.3,320C1386.7,320,1333,320,1280,320C1226.7,320,1173,320,1120,320C1066.7,320,1013,320,960,320C906.7,320,853,320,800,320C746.7,320,693,320,640,320C586.7,320,533,320,480,320C426.7,320,373,320,320,320C266.7,320,213,320,160,320C106.7,320,53,320,27,320L0,320Z"></path></svg>