<?xml version="1.0" standalone="no"?><svg xmlns="http://www.w3.org/2000/svg" viewBox="0 0 1440 320"><path fill="#00a8e6" fill-opacity="1" d="M0,128L26.7,138.7C53.3,149,107,171,160,192C213.3,213,267,235,320,224C373.3,213,427,171,480,144C533.3,117,587,107,640,117.3C693.3,128,747,160,800,181.3C853.3,203,907,213,960,186.7C1013.3,160,1067,96,1120,85.3C1173.3,75,1227,117,1280,133.3C1333.3,149,1387,139,1413,133.3L1440,128L1440,0L1413.3,0C1386.7,0,1333,0,1280,0C1226.7,0,1173,0,1120,0C1066.7,0,1013,0,960,0C906.7,0,853,0,800,0C746.7,0,693,0,640,0C586.7,0,533,0,480,0C426.7,0,373,0,320,0C266.7,0,213,0,160,0C106.7,0,53,0,27,0L0,0Z"></path></svg>